<svg width="142" height="42" viewBox="0 0 142 42" fill="none" xmlns="http://www.w3.org/2000/svg">
<path d="M43.997 40.1245L54.3745 1.87555H45.1944L39.7293 23.9209L33.9572 1.87555H24.5315L19.1585 23.9209L13.7548 1.87555H2.51762L12.8951 40.1245H23.3955L28.4921 19.0015L33.9572 40.1245H43.997ZM56.8921 0L45.4707 42H32.4528L28.5535 27.0264L24.8999 42H11.4521L0 0H15.2899L19.1585 15.8038L22.9963 0H35.4616L39.6679 16.1728L43.6285 0H56.8921Z" fill="#FFD540"/>
<path d="M66.9626 40.1245V1.87555H57.1991V40.1245H66.9626ZM68.5284 0V42H55.6333V0H68.5284Z" fill="#FFD540"/>
<path d="M89.8668 17.3719H84.893V10.0234H90.2352C93.2032 10.0234 94.6871 11.2328 94.6871 13.6515C94.6871 14.8814 94.2471 15.8141 93.3669 16.4495C92.4868 17.0644 91.3201 17.3719 89.8668 17.3719ZM94.0117 40.1245H106.845L100.091 23.429C101.442 22.7936 102.547 22.1069 103.407 21.369C104.266 20.631 104.942 19.8316 105.433 18.9707C105.945 18.1098 106.293 17.1977 106.477 16.2343C106.661 15.2709 106.753 14.246 106.753 13.1596C106.753 9.75695 105.546 7.03075 103.13 4.98097C100.736 2.91069 97.3583 1.87555 92.9985 1.87555H73.3181V40.1245H84.893V25.489H88.5466L94.0117 40.1245ZM109.67 42H92.7529L87.2264 27.3953H86.7658V42H71.4145V0H92.9985C95.4752 0 97.6755 0.317716 99.5996 0.953148C101.524 1.56808 103.151 2.45974 104.481 3.62811C105.832 4.77599 106.856 6.15959 107.552 7.77892C108.247 9.39824 108.595 11.1918 108.595 13.1596C108.595 15.5168 108.176 17.6076 107.337 19.4319C106.497 21.2562 104.86 22.8858 102.424 24.3206L109.67 42ZM90.2352 11.899H86.7658V15.4963H89.8668C90.747 15.4963 91.4531 15.3426 91.9853 15.0351C92.5379 14.7072 92.8143 14.246 92.8143 13.6515C92.8143 12.4832 91.9546 11.899 90.2352 11.899Z" fill="#FFD540"/>
<path d="M140.158 40.1245V30.9927H123.425V24.7511H136.965V16.2343H123.425V10.6999H140.158V1.87555H112.249V40.1245H140.158ZM142 29.0864V42H110.407V0H142V12.6061H125.267V14.3587H138.776V26.6266H125.267V29.0864H142Z" fill="#FFD540"/>
</svg>
